AdventPro-blk.ufo
<glyph name="quotedbl" format="1">
  <advance width="284" height="962"/>
  <unicode hex="0022"/>
  <outline>
    <contour>
      <point x="6" y="705" type="line"/>
      <point x="6" y="781"/>
      <point x="127" y="781"/>
      <point x="127" y="705" type="curve"/>
      <point x="109" y="589" type="line"/>
      <point x="24" y="589" type="line"/>
    </contour>
    <contour>
      <point x="156" y="705" type="line"/>
      <point x="156" y="781"/>
      <point x="277" y="781"/>
      <point x="277" y="705" type="curve"/>
      <point x="259" y="589" type="line"/>
      <point x="174" y="589" type="line"/>
    </contour>
  </outline>
</glyph>
<glyph name="numbersign" format="1">
  <advance width="619" height="962"/>
  <unicode hex="0023"/>
  <outline>
    <contour>
      <point x="460" y="270" type="line"/>
      <point x="584" y="270" type="line"/>
      <point x="584" y="167" type="line"/>
      <point x="435" y="167" type="line"/>
      <point x="396" y="0" type="line"/>
      <point x="283" y="0" type="line"/>
      <point x="321" y="167" type="line"/>
      <point x="203" y="167" type="line"/>
      <point x="165" y="0" type="line"/>
      <point x="58" y="0" type="line"/>
      <point x="99" y="167" type="line"/>
      <point x="33" y="167" type="line"/>
      <point x="33" y="270" type="line"/>
      <point x="123" y="270" type="line"/>
      <point x="144" y="357" type="line"/>
      <point x="33" y="357" type="line"/>
      <point x="33" y="471" type="line"/>
      <point x="171" y="471" type="line"/>
      <point x="224" y="700" type="line"/>
      <point x="328" y="700" type="line"/>
      <point x="275" y="471" type="line"/>
      <point x="393" y="471" type="line"/>
      <point x="447" y="700" type="line"/>
      <point x="563" y="700" type="line"/>
      <point x="509" y="471" type="line"/>
      <point x="584" y="471" type="line"/>
      <point x="584" y="357" type="line"/>
      <point x="480" y="357" type="line"/>
    </contour>
    <contour>
      <point x="346" y="270" type="line"/>
      <point x="367" y="357" type="line"/>
      <point x="248" y="357" type="line"/>
      <point x="227" y="270" type="line"/>
    </contour>
  </outline>
</glyph>
<glyph name="percent" format="1">
  <advance width="730" height="962"/>
  <unicode hex="0025"/>
  <outline>
    <contour>
      <point x="35" y="0" type="line"/>
      <point x="574" y="700" type="line"/>
      <point x="691" y="700" type="line"/>
      <point x="150" y="0" type="line"/>
    </contour>
    <contour>
      <point x="188" y="715" type="curve" smooth="yes"/>
      <point x="266" y="715"/>
      <point x="333" y="650"/>
      <point x="333" y="570" type="curve" smooth="yes"/>
      <point x="333" y="489"/>
      <point x="266" y="423"/>
      <point x="188" y="423" type="curve" smooth="yes"/>
      <point x="107" y="423"/>
      <point x="41" y="489"/>
      <point x="41" y="570" type="curve" smooth="yes"/>
      <point x="41" y="650"/>
      <point x="107" y="715"/>
    </contour>
    <contour>
      <point x="188" y="622" type="curve" smooth="yes"/>
      <point x="158" y="622"/>
      <point x="135" y="598"/>
      <point x="135" y="570" type="curve" smooth="yes"/>
      <point x="135" y="541"/>
      <point x="158" y="517"/>
      <point x="188" y="517" type="curve" smooth="yes"/>
      <point x="215" y="517"/>
      <point x="240" y="541"/>
      <point x="240" y="570" type="curve" smooth="yes"/>
      <point x="240" y="598"/>
      <point x="215" y="622"/>
    </contour>
    <contour>
      <point x="549" y="278" type="curve" smooth="yes"/>
      <point x="629" y="278"/>
      <point x="694" y="213"/>
      <point x="694" y="132" type="curve" smooth="yes"/>
      <point x="694" y="51"/>
      <point x="629" y="-14"/>
      <point x="549" y="-14" type="curve" smooth="yes"/>
      <point x="468" y="-14"/>
      <point x="402" y="51"/>
      <point x="402" y="132" type="curve" smooth="yes"/>
      <point x="402" y="213"/>
      <point x="468" y="278"/>
    </contour>
    <contour>
      <point x="549" y="185" type="curve" smooth="yes"/>
      <point x="520" y="185"/>
      <point x="497" y="159"/>
      <point x="497" y="132" type="curve" smooth="yes"/>
      <point x="497" y="103"/>
      <point x="520" y="79"/>
      <point x="549" y="79" type="curve" smooth="yes"/>
      <point x="576" y="79"/>
      <point x="600" y="103"/>
      <point x="600" y="132" type="curve" smooth="yes"/>
      <point x="600" y="159"/>
      <point x="576" y="185"/>
    </contour>
  </outline>
</glyph>
<glyph name="parenleft" format="1">
  <advance width="241" height="962"/>
  <unicode hex="0028"/>
  <outline>
    <contour>
      <point x="215" y="731" type="line"/>
      <point x="215" y="731"/>
      <point x="149" y="704"/>
      <point x="150" y="608" type="curve"/>
      <point x="150" y="323"/>
      <point x="150" y="185"/>
      <point x="150" y="104" type="curve"/>
      <point x="149" y="-1"/>
      <point x="217" y="-35"/>
      <point x="216" y="-35" type="curve"/>
      <point x="161" y="-117" type="line"/>
      <point x="62" y="-60"/>
      <point x="40" y="13"/>
      <point x="40" y="95" type="curve" smooth="yes"/>
      <point x="40" y="606" type="line" smooth="yes"/>
      <point x="40" y="685"/>
      <point x="68" y="767"/>
      <point x="160" y="819" type="curve"/>
    </contour>
  </outline>
</glyph>
<glyph name="parenright" format="2">
  <advance width="267" height="962"/>
  <unicode hex="0029"/>
  <outline>
    <contour>
      <point x="3" y="731" type="line"/>
      <point x="10.0559" y="725.834"/>
      <point x="48" y="704.005"/>
      <point x="48" y="608" type="curve" smooth="yes"/>
      <point x="48" y="104" type="line" smooth="yes"/>
      <point x="48" y="-1.0048"/>
      <point x="10.9385" y="-26.1799"/>
      <point x="2" y="-35" type="curve"/>
      <point x="107" y="-117" type="line"/>
      <point x="206" y="-60"/>
      <point x="228" y="13"/>
      <point x="228" y="95" type="curve" smooth="yes"/>
      <point x="228" y="606" type="line" smooth="yes"/>
      <point x="228" y="685"/>
      <point x="200" y="767"/>
      <point x="108" y="819" type="curve"/>
    </contour>
  </outline>
</glyph>
<glyph name="seven" format="2">
  <advance width="466" height="962"/>
  <unicode hex="0037"/>
  <outline>
    <contour>
      <point x="214" y="0" type="line"/>
      <point x="27" y="0" type="line"/>
      <point x="258" y="540" type="line"/>
      <point x="48" y="540" type="line"/>
      <point x="48" y="700" type="line"/>
      <point x="442" y="700" type="line"/>
      <point x="442" y="540" type="line"/>
    </contour>
  </outline>
</glyph>
<glyph name="eight" format="2">
  <advance width="488"/>
  <unicode hex="0038"/>
  <outline>
    <contour>
      <point x="244" y="710" type="curve" smooth="yes"/>
      <point x="341" y="710"/>
      <point x="420" y="631"/>
      <point x="420" y="534" type="curve" smooth="yes"/>
      <point x="420" y="471"/>
      <point x="396" y="423"/>
      <point x="343" y="389" type="curve"/>
      <point x="411" y="353"/>
      <point x="457" y="279"/>
      <point x="457" y="202" type="curve" smooth="yes"/>
      <point x="457" y="85"/>
      <point x="360" y="-12"/>
      <point x="243" y="-12" type="curve" smooth="yes"/>
      <point x="125" y="-12"/>
      <point x="29" y="84"/>
      <point x="29" y="202" type="curve" smooth="yes"/>
      <point x="29" y="277"/>
      <point x="75" y="357"/>
      <point x="144" y="390" type="curve"/>
      <point x="93" y="425"/>
      <point x="69" y="472"/>
      <point x="69" y="534" type="curve" smooth="yes"/>
      <point x="69" y="632"/>
      <point x="146" y="710"/>
    </contour>
    <contour>
      <point x="243" y="502" type="curve" smooth="yes"/>
      <point x="260" y="502"/>
      <point x="276" y="518"/>
      <point x="276" y="535" type="curve" smooth="yes"/>
      <point x="276" y="554"/>
      <point x="262" y="567"/>
      <point x="243" y="567" type="curve" smooth="yes"/>
      <point x="224" y="567"/>
      <point x="210" y="554"/>
      <point x="210" y="535" type="curve" smooth="yes"/>
      <point x="210" y="517"/>
      <point x="225" y="502"/>
    </contour>
    <contour>
      <point x="243" y="165" type="curve" smooth="yes"/>
      <point x="263" y="165"/>
      <point x="279" y="182"/>
      <point x="279" y="202" type="curve" smooth="yes"/>
      <point x="279" y="222"/>
      <point x="263" y="239"/>
      <point x="243" y="239" type="curve" smooth="yes"/>
      <point x="222" y="239"/>
      <point x="206" y="222"/>
      <point x="206" y="202" type="curve" smooth="yes"/>
      <point x="206" y="182"/>
      <point x="222" y="165"/>
    </contour>
  </outline>
</glyph>
<glyph name="greater" format="2">
  <advance width="415" height="962"/>
  <unicode hex="003E"/>
  <outline>
    <contour>
      <point x="26" y="561.054" type="line"/>
      <point x="116.018" y="638" type="line"/>
      <point x="395.018" y="359" type="line"/>
      <point x="116.018" y="80" type="line"/>
      <point x="28.4145" y="156.514" type="line"/>
      <point x="225.018" y="360" type="line"/>
    </contour>
  </outline>
</glyph>
<glyph name="A" format="2">
  <advance width="545"/>
  <unicode hex="0041"/>
  <outline>
    <contour>
      <point x="522" y="0" type="line"/>
      <point x="331" y="0" type="line"/>
      <point x="318" y="115" type="line"/>
      <point x="227" y="115" type="line"/>
      <point x="215" y="0" type="line"/>
      <point x="24" y="0" type="line"/>
      <point x="134" y="700" type="line"/>
      <point x="409" y="700" type="line"/>
    </contour>
    <contour>
      <point x="243" y="272" type="line"/>
      <point x="302" y="272" type="line"/>
      <point x="272" y="552" type="line"/>
    </contour>
  </outline>
</glyph>
<glyph name="D" format="2">
  <advance width="499" height="962"/>
  <unicode hex="0044"/>
  <outline>
    <contour>
      <point x="230" y="702" type="line" smooth="yes"/>
      <point x="373" y="702"/>
      <point x="463" y="629"/>
      <point x="463" y="485" type="curve" smooth="yes"/>
      <point x="463" y="207" type="line" smooth="yes"/>
      <point x="463" y="74"/>
      <point x="392" y="0"/>
      <point x="250" y="0" type="curve" smooth="yes"/>
      <point x="41" y="0" type="line"/>
      <point x="41" y="702" type="line"/>
    </contour>
    <contour>
      <point x="246" y="160" type="line" smooth="yes"/>
      <point x="271" y="160"/>
      <point x="282" y="174"/>
      <point x="282" y="208" type="curve" smooth="yes"/>
      <point x="282" y="493" type="line" smooth="yes"/>
      <point x="282" y="526"/>
      <point x="271" y="543"/>
      <point x="248" y="543" type="curve" smooth="yes"/>
      <point x="221" y="543" type="line"/>
      <point x="221" y="160" type="line"/>
    </contour>
  </outline>
</glyph>
<glyph name="F" format="2">
  <advance width="395" height="962"/>
  <unicode hex="0046"/>
  <outline>
    <contour>
      <point x="376" y="700" type="line"/>
      <point x="376" y="540" type="line"/>
      <point x="221" y="540" type="line"/>
      <point x="221" y="438" type="line"/>
      <point x="349" y="438" type="line"/>
      <point x="297" y="280" type="line"/>
      <point x="221" y="280" type="line"/>
      <point x="221" y="0" type="line"/>
      <point x="41" y="0" type="line"/>
      <point x="41" y="700" type="line"/>
    </contour>
  </outline>
</glyph>
<glyph name="K" format="1">
  <advance width="516" height="962"/>
  <unicode hex="004B"/>
  <outline>
    <contour>
      <point x="221" y="485" type="line"/>
      <point x="288" y="700" type="line"/>
      <point x="487" y="700" type="line"/>
      <point x="348" y="385" type="line"/>
      <point x="494" y="0" type="line"/>
      <point x="295" y="0" type="line"/>
      <point x="234" y="216" type="line"/>
      <point x="221" y="189" type="line"/>
      <point x="221" y="0" type="line"/>
      <point x="41" y="0" type="line"/>
      <point x="41" y="700" type="line"/>
      <point x="221" y="700" type="line"/>
    </contour>
  </outline>
</glyph>
<glyph name="M" format="1">
  <advance width="622" height="962"/>
  <unicode hex="004D"/>
  <outline>
    <contour>
      <point x="221" y="700" type="line"/>
      <point x="309" y="373" type="line"/>
      <point x="400" y="700" type="line"/>
      <point x="579" y="700" type="line"/>
      <point x="609" y="0" type="line"/>
      <point x="429" y="0" type="line"/>
      <point x="429" y="249" type="line"/>
      <point x="371" y="0" type="line"/>
      <point x="248" y="0" type="line"/>
      <point x="192" y="250" type="line"/>
      <point x="192" y="0" type="line"/>
      <point x="11" y="0" type="line"/>
      <point x="41" y="700" type="line"/>
    </contour>
  </outline>
</glyph>
<glyph name="N" format="1">
  <advance width="578" height="962"/>
  <unicode hex="004E"/>
  <outline>
    <contour>
      <point x="535" y="700" type="line"/>
      <point x="535" y="0" type="line"/>
      <point x="349" y="0" type="line"/>
      <point x="221" y="295" type="line"/>
      <point x="221" y="-1" type="line"/>
      <point x="41" y="0" type="line"/>
      <point x="41" y="700" type="line"/>
      <point x="221" y="700" type="line"/>
      <point x="353" y="393" type="line"/>
      <point x="353" y="700" type="line"/>
    </contour>
  </outline>
</glyph>
<glyph name="P" format="1">
  <advance width="509" height="962"/>
  <unicode hex="0050"/>
  <outline>
    <contour>
      <point x="259" y="700" type="line" smooth="yes"/>
      <point x="364" y="700"/>
      <point x="480" y="646"/>
      <point x="478" y="438" type="curve" smooth="yes"/>
      <point x="476" y="220"/>
      <point x="367" y="172"/>
      <point x="259" y="172" type="curve" smooth="yes"/>
      <point x="221" y="172" type="line"/>
      <point x="221" y="0" type="line"/>
      <point x="41" y="0" type="line"/>
      <point x="41" y="700" type="line"/>
    </contour>
    <contour>
      <point x="221" y="332" type="line"/>
      <point x="244" y="332" type="line" smooth="yes"/>
      <point x="282" y="332"/>
      <point x="297" y="358"/>
      <point x="297" y="436" type="curve" smooth="yes"/>
      <point x="297" y="508"/>
      <point x="281" y="537"/>
      <point x="244" y="537" type="curve" smooth="yes"/>
      <point x="221" y="537" type="line"/>
    </contour>
  </outline>
</glyph>
<glyph name="Q" format="1">
  <advance width="495" height="962"/>
  <unicode hex="0051"/>
  <outline>
    <component base="O"/>
    <contour>
      <point x="317" y="61" type="line" smooth="yes"/>
      <point x="317" y="17"/>
      <point x="325" y="-32"/>
      <point x="451" y="-8" type="curve"/>
      <point x="401" y="-151" type="line"/>
      <point x="210" y="-151"/>
      <point x="172" y="-63"/>
      <point x="173" y="19" type="curve" smooth="yes"/>
      <point x="174" y="178" type="line"/>
      <point x="317" y="178" type="line"/>
    </contour>
  </outline>
</glyph>
<glyph name="R" format="2">
  <advance width="513" height="962"/>
  <unicode hex="0052"/>
  <outline>
    <contour>
      <point x="259" y="700" type="line" smooth="yes"/>
      <point x="364" y="700"/>
      <point x="478" y="652"/>
      <point x="478" y="439" type="curve" smooth="yes"/>
      <point x="478" y="321"/>
      <point x="444" y="279"/>
      <point x="413" y="247" type="curve"/>
      <point x="482" y="0" type="line"/>
      <point x="296" y="0" type="line"/>
      <point x="258" y="174" type="line"/>
      <point x="250" y="173"/>
      <point x="237" y="173"/>
      <point x="233" y="173" type="curve"/>
      <point x="221" y="173" type="line"/>
      <point x="221" y="0" type="line"/>
      <point x="41" y="0" type="line"/>
      <point x="41" y="700" type="line"/>
    </contour>
    <contour>
      <point x="244" y="332" type="line" smooth="yes"/>
      <point x="281" y="332"/>
      <point x="297" y="357"/>
      <point x="297" y="439" type="curve" smooth="yes"/>
      <point x="297" y="508"/>
      <point x="281" y="535"/>
      <point x="244" y="535" type="curve" smooth="yes"/>
      <point x="221" y="535" type="line"/>
      <point x="221" y="332" type="line"/>
    </contour>
  </outline>
</glyph>
<glyph name="V" format="1">
  <advance width="516" height="962"/>
  <unicode hex="0056"/>
  <outline>
    <contour>
      <point x="16" y="700" type="line"/>
      <point x="194" y="700" type="line"/>
      <point x="257" y="219" type="line"/>
      <point x="317" y="700" type="line"/>
      <point x="497" y="700" type="line"/>
      <point x="355" y="0" type="line"/>
      <point x="153" y="0" type="line"/>
    </contour>
  </outline>
</glyph>
<glyph name="Z" format="1">
  <advance width="558" height="962"/>
  <unicode hex="005A"/>
  <outline>
    <contour>
      <point x="516" y="700" type="line"/>
      <point x="516" y="520" type="line"/>
      <point x="249" y="178" type="line"/>
      <point x="522" y="178" type="line"/>
      <point x="522" y="0" type="line"/>
      <point x="32" y="0" type="line"/>
      <point x="32" y="174" type="line"/>
      <point x="298" y="520" type="line"/>
      <point x="46" y="520" type="line"/>
      <point x="46" y="700" type="line"/>
    </contour>
  </outline>
</glyph>
<glyph name="bracketleft" format="2">
  <advance width="308" height="962"/>
  <unicode hex="005B"/>
  <outline>
    <contour>
      <point x="224" y="653" type="line"/>
      <point x="224" y="61" type="line"/>
      <point x="275" y="57" type="line"/>
      <point x="275" y="-115" type="line"/>
      <point x="42" y="-115" type="line"/>
      <point x="42" y="819" type="line"/>
      <point x="275" y="819" type="line"/>
      <point x="275" y="660" type="line"/>
    </contour>
  </outline>
</glyph>
<glyph name="c" format="2">
  <advance width="385"/>
  <unicode hex="0063"/>
  <outline>
    <contour>
      <point x="308" y="320" type="line"/>
      <point x="297" y="326"/>
      <point x="283" y="330"/>
      <point x="269" y="331" type="curve" smooth="yes"/>
      <point x="242" y="333"/>
      <point x="221" y="320"/>
      <point x="221" y="291" type="curve" smooth="yes"/>
      <point x="221" y="215" type="line" smooth="yes"/>
      <point x="221" y="185"/>
      <point x="241" y="171"/>
      <point x="270" y="171" type="curve" smooth="yes"/>
      <point x="290" y="171"/>
      <point x="317" y="176"/>
      <point x="316" y="176" type="curve"/>
      <point x="354" y="5" type="line"/>
      <point x="313" y="-6"/>
      <point x="268" y="-13"/>
      <point x="223" y="-12" type="curve" smooth="yes"/>
      <point x="108" y="-8"/>
      <point x="31" y="45"/>
      <point x="31" y="174" type="curve" smooth="yes"/>
      <point x="31" y="320" type="line" smooth="yes"/>
      <point x="31" y="433"/>
      <point x="98" y="515"/>
      <point x="222" y="512" type="curve" smooth="yes"/>
      <point x="266" y="511"/>
      <point x="311" y="498"/>
      <point x="352" y="479" type="curve"/>
    </contour>
  </outline>
</glyph>
<glyph name="d" format="2">
  <advance width="461"/>
  <unicode hex="0064"/>
  <outline>
    <contour>
      <point x="416" y="0" type="line"/>
      <point x="356" y="-3"/>
      <point x="298" y="-11"/>
      <point x="239" y="-11" type="curve" smooth="yes"/>
      <point x="125" y="-11"/>
      <point x="31" y="25"/>
      <point x="31" y="156" type="curve" smooth="yes"/>
      <point x="31" y="360" type="line" smooth="yes"/>
      <point x="31" y="462"/>
      <point x="78" y="510"/>
      <point x="153" y="510" type="curve" smooth="yes"/>
      <point x="183" y="510"/>
      <point x="206" y="506"/>
      <point x="236" y="496" type="curve"/>
      <point x="236" y="700" type="line"/>
      <point x="416" y="700" type="line"/>
    </contour>
    <contour>
      <point x="235" y="329" type="line"/>
      <point x="230" y="330"/>
      <point x="224" y="331"/>
      <point x="220" y="331" type="curve" smooth="yes"/>
      <point x="212" y="331"/>
      <point x="209" y="324"/>
      <point x="209" y="313" type="curve" smooth="yes"/>
      <point x="209" y="194" type="line" smooth="yes"/>
      <point x="209" y="175"/>
      <point x="219" y="169"/>
      <point x="226" y="169" type="curve" smooth="yes"/>
      <point x="231" y="169"/>
      <point x="236" y="170"/>
      <point x="236" y="170" type="curve"/>
    </contour>
  </outline>
</glyph>
<glyph name="f" format="1">
  <advance width="375" height="962"/>
  <unicode hex="0066"/>
  <outline>
    <contour>
      <point x="305" y="532" type="line"/>
      <point x="294" y="536"/>
      <point x="260" y="540"/>
      <point x="246" y="540" type="curve" smooth="yes"/>
      <point x="227" y="540"/>
      <point x="221" y="528"/>
      <point x="221" y="518" type="curve" smooth="yes"/>
      <point x="221" y="501" type="line"/>
      <point x="326" y="501" type="line"/>
      <point x="287" y="319" type="line"/>
      <point x="221" y="319" type="line"/>
      <point x="221" y="0" type="line"/>
      <point x="40" y="0" type="line"/>
      <point x="40" y="523" type="line" smooth="yes"/>
      <point x="40" y="635"/>
      <point x="78" y="713"/>
      <point x="230" y="713" type="curve" smooth="yes"/>
      <point x="253" y="713"/>
      <point x="318" y="707"/>
      <point x="342" y="697" type="curve"/>
    </contour>
  </outline>
</glyph>
<glyph name="h" format="2">
  <advance width="464"/>
  <unicode hex="0068"/>
  <outline>
    <contour>
      <point x="221" y="497" type="line"/>
      <point x="232" y="503"/>
      <point x="259" y="511"/>
      <point x="290" y="511" type="curve" smooth="yes"/>
      <point x="376" y="511"/>
      <point x="427" y="475"/>
      <point x="427" y="346" type="curve" smooth="yes"/>
      <point x="427" y="0" type="line"/>
      <point x="247" y="0" type="line"/>
      <point x="247" y="321" type="line"/>
      <point x="247" y="329"/>
      <point x="242" y="335"/>
      <point x="234" y="335" type="curve" smooth="yes"/>
      <point x="230" y="335"/>
      <point x="226" y="334"/>
      <point x="221" y="330" type="curve"/>
      <point x="221" y="0" type="line"/>
      <point x="41" y="0" type="line"/>
      <point x="41" y="700" type="line"/>
      <point x="221" y="700" type="line"/>
    </contour>
  </outline>
</glyph>
<glyph name="m" format="2">
  <advance width="721"/>
  <unicode hex="006D"/>
  <outline>
    <contour>
      <point x="505" y="312" type="line"/>
      <point x="505" y="325"/>
      <point x="496" y="333"/>
      <point x="485" y="333" type="curve" smooth="yes"/>
      <point x="472" y="333"/>
      <point x="456" y="325"/>
      <point x="450" y="321" type="curve"/>
      <point x="451" y="319"/>
      <point x="451" y="315"/>
      <point x="451" y="312" type="curve"/>
      <point x="451" y="0" type="line"/>
      <point x="274" y="0" type="line"/>
      <point x="274" y="313" type="line"/>
      <point x="274" y="326"/>
      <point x="265" y="333"/>
      <point x="252" y="333" type="curve" smooth="yes"/>
      <point x="237" y="333"/>
      <point x="225" y="326"/>
      <point x="219" y="323" type="curve"/>
      <point x="219" y="0" type="line"/>
      <point x="39" y="0" type="line"/>
      <point x="39" y="501" type="line"/>
      <point x="219" y="501" type="line"/>
      <point x="219" y="477" type="line"/>
      <point x="246" y="497"/>
      <point x="310" y="509"/>
      <point x="339" y="509" type="curve" smooth="yes"/>
      <point x="372" y="509"/>
      <point x="406" y="497"/>
      <point x="429" y="461" type="curve"/>
      <point x="463" y="489"/>
      <point x="502" y="509"/>
      <point x="545" y="509" type="curve" smooth="yes"/>
      <point x="624" y="509"/>
      <point x="684" y="474"/>
      <point x="684" y="345" type="curve" smooth="yes"/>
      <point x="684" y="0" type="line"/>
      <point x="505" y="0" type="line"/>
    </contour>
  </outline>
</glyph>
<glyph name="n" format="1">
  <advance width="464" height="962"/>
  <unicode hex="006E"/>
  <outline>
    <contour>
      <point x="246" y="320" type="line"/>
      <point x="246" y="327"/>
      <point x="241" y="333"/>
      <point x="233" y="333" type="curve" smooth="yes"/>
      <point x="229" y="333"/>
      <point x="225" y="331"/>
      <point x="219" y="328" type="curve"/>
      <point x="219" y="-1" type="line"/>
      <point x="39" y="-1" type="line"/>
      <point x="39" y="501" type="line"/>
      <point x="219" y="501" type="line"/>
      <point x="219" y="486" type="line"/>
      <point x="229" y="493"/>
      <point x="258" y="510"/>
      <point x="308" y="510" type="curve" smooth="yes"/>
      <point x="363" y="510"/>
      <point x="426" y="475"/>
      <point x="426" y="346" type="curve" smooth="yes"/>
      <point x="426" y="-1" type="line"/>
      <point x="246" y="-1" type="line"/>
    </contour>
  </outline>
</glyph>
<glyph name="o" format="1">
  <advance width="450" height="962"/>
  <unicode hex="006F"/>
  <outline>
    <contour>
      <point x="418" y="185" type="line" smooth="yes"/>
      <point x="418" y="67"/>
      <point x="352" y="-10"/>
      <point x="225" y="-10" type="curve" smooth="yes"/>
      <point x="87" y="-10"/>
      <point x="31" y="67"/>
      <point x="31" y="185" type="curve" smooth="yes"/>
      <point x="31" y="317" type="line" smooth="yes"/>
      <point x="31" y="439"/>
      <point x="100" y="512"/>
      <point x="228" y="512" type="curve" smooth="yes"/>
      <point x="349" y="512"/>
      <point x="418" y="439"/>
      <point x="418" y="317" type="curve" smooth="yes"/>
    </contour>
    <contour>
      <point x="238" y="311" type="line" smooth="yes"/>
      <point x="238" y="325"/>
      <point x="234" y="333"/>
      <point x="225" y="333" type="curve" smooth="yes"/>
      <point x="216" y="333"/>
      <point x="211" y="325"/>
      <point x="211" y="311" type="curve" smooth="yes"/>
      <point x="211" y="191" type="line" smooth="yes"/>
      <point x="211" y="179"/>
      <point x="215" y="169"/>
      <point x="225" y="169" type="curve" smooth="yes"/>
      <point x="234" y="169"/>
      <point x="238" y="178"/>
      <point x="238" y="191" type="curve" smooth="yes"/>
    </contour>
  </outline>
</glyph>
<glyph name="q" format="1">
  <advance width="459" height="962"/>
  <unicode hex="0071"/>
  <outline>
    <contour>
      <point x="239" y="0" type="line"/>
      <point x="222" y="-6"/>
      <point x="198" y="-11"/>
      <point x="168" y="-11" type="curve" smooth="yes"/>
      <point x="93" y="-11"/>
      <point x="32" y="55"/>
      <point x="32" y="177" type="curve" smooth="yes"/>
      <point x="32" y="346" type="line" smooth="yes"/>
      <point x="32" y="449"/>
      <point x="79" y="512"/>
      <point x="156" y="512" type="curve" smooth="yes"/>
      <point x="181" y="512"/>
      <point x="217" y="500"/>
      <point x="239" y="479" type="curve"/>
      <point x="239" y="501" type="line"/>
      <point x="419" y="501" type="line"/>
      <point x="419" y="-213" type="line"/>
      <point x="239" y="-192" type="line"/>
    </contour>
    <contour>
      <point x="239" y="319" type="line"/>
      <point x="235" y="321"/>
      <point x="231" y="322"/>
      <point x="225" y="322" type="curve" smooth="yes"/>
      <point x="219" y="322"/>
      <point x="212" y="318"/>
      <point x="212" y="306" type="curve" smooth="yes"/>
      <point x="212" y="182" type="line" smooth="yes"/>
      <point x="212" y="175"/>
      <point x="215" y="169"/>
      <point x="224" y="169" type="curve" smooth="yes"/>
      <point x="234" y="169"/>
      <point x="239" y="174"/>
      <point x="239" y="179" type="curve" smooth="yes"/>
    </contour>
  </outline>
</glyph>
<glyph name="r" format="1">
  <advance width="374" height="962"/>
  <unicode hex="0072"/>
  <outline>
    <contour>
      <point x="338" y="319" type="line"/>
      <point x="338" y="319"/>
      <point x="327" y="326"/>
      <point x="304" y="326" type="curve" smooth="yes"/>
      <point x="275" y="326"/>
      <point x="246" y="318"/>
      <point x="219" y="298" type="curve"/>
      <point x="219" y="0" type="line"/>
      <point x="39" y="0" type="line"/>
      <point x="39" y="501" type="line"/>
      <point x="219" y="501" type="line"/>
      <point x="219" y="481" type="line"/>
      <point x="241" y="503"/>
      <point x="269" y="516"/>
      <point x="297" y="516" type="curve" smooth="yes"/>
      <point x="317" y="516"/>
      <point x="334" y="509"/>
      <point x="348" y="501" type="curve"/>
    </contour>
  </outline>
</glyph>
<glyph name="s" format="1">
  <advance width="443" height="962"/>
  <unicode hex="0073"/>
  <outline>
    <contour>
      <point x="324" y="332" type="line"/>
      <point x="311" y="338"/>
      <point x="270" y="349"/>
      <point x="241" y="349" type="curve" smooth="yes"/>
      <point x="230" y="349"/>
      <point x="226" y="348"/>
      <point x="226" y="343" type="curve" smooth="yes"/>
      <point x="226" y="312"/>
      <point x="418" y="331"/>
      <point x="418" y="160" type="curve" smooth="yes"/>
      <point x="418" y="43"/>
      <point x="318" y="-15"/>
      <point x="224" y="-15" type="curve" smooth="yes"/>
      <point x="151" y="-15"/>
      <point x="79" y="18"/>
      <point x="25" y="77" type="curve"/>
      <point x="101" y="191" type="line"/>
      <point x="123" y="173"/>
      <point x="168" y="156"/>
      <point x="198" y="156" type="curve" smooth="yes"/>
      <point x="210" y="156"/>
      <point x="219" y="157"/>
      <point x="219" y="165" type="curve" smooth="yes"/>
      <point x="219" y="189"/>
      <point x="46" y="191"/>
      <point x="46" y="352" type="curve" smooth="yes"/>
      <point x="46" y="450"/>
      <point x="109" y="514"/>
      <point x="226" y="514" type="curve" smooth="yes"/>
      <point x="286" y="514"/>
      <point x="343" y="491"/>
      <point x="377" y="467" type="curve"/>
    </contour>
  </outline>
</glyph>
<glyph name="z" format="2">
  <advance width="435"/>
  <unicode hex="007A"/>
  <outline>
    <contour>
      <point x="392" y="501" type="line"/>
      <point x="392" y="337" type="line"/>
      <point x="267" y="170" type="line"/>
      <point x="402" y="169" type="line"/>
      <point x="402" y="0" type="line"/>
      <point x="33" y="0" type="line"/>
      <point x="33" y="170" type="line"/>
      <point x="158" y="336" type="line"/>
      <point x="42" y="337" type="line"/>
      <point x="42" y="501" type="line"/>
    </contour>
  </outline>
</glyph>
<glyph name="copyright" format="1">
  <advance width="870" height="962"/>
  <unicode hex="00A9"/>
  <outline>
    <contour>
      <point x="837" y="177" type="line" smooth="yes"/>
      <point x="837" y="-48"/>
      <point x="670" y="-146"/>
      <point x="434" y="-146" type="curve" smooth="yes"/>
      <point x="198" y="-146"/>
      <point x="32" y="-48"/>
      <point x="32" y="177" type="curve" smooth="yes"/>
      <point x="32" y="347" type="line" smooth="yes"/>
      <point x="32" y="553"/>
      <point x="198" y="667"/>
      <point x="434" y="667" type="curve" smooth="yes"/>
      <point x="670" y="667"/>
      <point x="837" y="553"/>
      <point x="837" y="347" type="curve" smooth="yes"/>
    </contour>
    <contour>
      <point x="655" y="290" type="line" smooth="yes"/>
      <point x="655" y="471"/>
      <point x="592" y="505"/>
      <point x="433" y="505" type="curve" smooth="yes"/>
      <point x="276" y="505"/>
      <point x="212" y="449"/>
      <point x="212" y="290" type="curve" smooth="yes"/>
      <point x="212" y="223" type="line" smooth="yes"/>
      <point x="212" y="72"/>
      <point x="276" y="11"/>
      <point x="433" y="11" type="curve" smooth="yes"/>
      <point x="592" y="11"/>
      <point x="655" y="46"/>
      <point x="655" y="223" type="curve" smooth="yes"/>
    </contour>
    <contour>
      <point x="567" y="300" type="line"/>
      <point x="568" y="300"/>
      <point x="527" y="309"/>
      <point x="492" y="309" type="curve" smooth="yes"/>
      <point x="458" y="309"/>
      <point x="420" y="303"/>
      <point x="420" y="261" type="curve" smooth="yes"/>
      <point x="420" y="228"/>
      <point x="445" y="211"/>
      <point x="485" y="211" type="curve" smooth="yes"/>
      <point x="528" y="211"/>
      <point x="555" y="218"/>
      <point x="571" y="222" type="curve"/>
      <point x="608" y="85" type="line"/>
      <point x="565" y="63"/>
      <point x="507" y="41"/>
      <point x="440" y="41" type="curve" smooth="yes"/>
      <point x="310" y="41"/>
      <point x="240" y="125"/>
      <point x="240" y="252" type="curve" smooth="yes"/>
      <point x="240" y="390"/>
      <point x="313" y="478"/>
      <point x="453" y="478" type="curve" smooth="yes"/>
      <point x="507" y="478"/>
      <point x="561" y="461"/>
      <point x="604" y="440" type="curve"/>
    </contour>
  </outline>
</glyph>
<glyph name="registered" format="2">
  <advance width="866" height="962"/>
  <unicode hex="00AE"/>
  <outline>
    <contour>
      <point x="838" y="177" type="line" smooth="yes"/>
      <point x="838" y="-48"/>
      <point x="671" y="-146"/>
      <point x="435" y="-146" type="curve" smooth="yes"/>
      <point x="199" y="-146"/>
      <point x="33" y="-48"/>
      <point x="33" y="177" type="curve" smooth="yes"/>
      <point x="33" y="347" type="line" smooth="yes"/>
      <point x="33" y="550"/>
      <point x="199" y="667"/>
      <point x="435" y="667" type="curve" smooth="yes"/>
      <point x="671" y="667"/>
      <point x="838" y="550"/>
      <point x="838" y="347" type="curve" smooth="yes"/>
    </contour>
    <contour>
      <point x="656" y="290" type="line" smooth="yes"/>
      <point x="656" y="458"/>
      <point x="593" y="505"/>
      <point x="434" y="505" type="curve" smooth="yes"/>
      <point x="277" y="505"/>
      <point x="213" y="449"/>
      <point x="213" y="290" type="curve" smooth="yes"/>
      <point x="213" y="223" type="line" smooth="yes"/>
      <point x="213" y="72"/>
      <point x="277" y="11"/>
      <point x="434" y="11" type="curve" smooth="yes"/>
      <point x="593" y="11"/>
      <point x="656" y="59"/>
      <point x="656" y="223" type="curve" smooth="yes"/>
    </contour>
    <contour>
      <point x="455" y="444" type="line" smooth="yes"/>
      <point x="567" y="444"/>
      <point x="616" y="381"/>
      <point x="616" y="284" type="curve" smooth="yes"/>
      <point x="616" y="217"/>
      <point x="608" y="175"/>
      <point x="576" y="149" type="curve"/>
      <point x="601" y="61" type="line"/>
      <point x="449" y="61" type="line"/>
      <point x="438" y="129" type="line"/>
      <point x="421" y="129" type="line"/>
      <point x="421" y="61" type="line"/>
      <point x="269" y="61" type="line"/>
      <point x="269" y="444" type="line"/>
    </contour>
    <contour>
      <point x="429" y="250" type="line" smooth="yes"/>
      <point x="435" y="250"/>
      <point x="448" y="253"/>
      <point x="448" y="284" type="curve" smooth="yes"/>
      <point x="448" y="316"/>
      <point x="435" y="318"/>
      <point x="429" y="318" type="curve" smooth="yes"/>
      <point x="420" y="318" type="line"/>
      <point x="420" y="250" type="line"/>
    </contour>
  </outline>
</glyph>
<glyph name="plusminus" format="2">
  <advance width="391" height="962"/>
  <unicode hex="00B1"/>
  <outline>
    <contour>
      <point x="35" y="350" type="line"/>
      <point x="35" y="456" type="line"/>
      <point x="140" y="456" type="line"/>
      <point x="140" y="566" type="line"/>
      <point x="251" y="566" type="line"/>
      <point x="251" y="456" type="line"/>
      <point x="356" y="456" type="line"/>
      <point x="356" y="350" type="line"/>
      <point x="251" y="350" type="line"/>
      <point x="251" y="247" type="line"/>
      <point x="355" y="247" type="line"/>
      <point x="355" y="147" type="line"/>
      <point x="34" y="147" type="line"/>
      <point x="34" y="247" type="line"/>
      <point x="140" y="247" type="line"/>
      <point x="140" y="350" type="line"/>
    </contour>
  </outline>
</glyph>
<glyph name="acute" format="1">
  <advance width="267" height="962"/>
  <unicode hex="00B4"/>
  <outline>
    <contour>
      <point x="226" y="665" type="curve" smooth="yes"/>
      <point x="174" y="598" type="line"/>
      <point x="85" y="598" type="line"/>
      <point x="116" y="715" type="line" smooth="yes"/>
      <point x="125" y="750"/>
      <point x="169" y="785"/>
      <point x="213" y="762" type="curve" smooth="yes"/>
      <point x="254" y="741"/>
      <point x="247" y="692"/>
    </contour>
  </outline>
</glyph>
<glyph name="mu" format="1">
  <advance width="477" height="962"/>
  <unicode hex="00B5"/>
  <outline>
    <contour>
      <point x="429" y="188" type="line"/>
      <point x="429" y="147"/>
      <point x="459" y="133"/>
      <point x="464" y="131" type="curve"/>
      <point x="427" y="-1" type="line"/>
      <point x="402" y="-5"/>
      <point x="363" y="-2"/>
      <point x="347" y="13" type="curve"/>
      <point x="338" y="0"/>
      <point x="303" y="-9"/>
      <point x="265" y="-9" type="curve" smooth="yes"/>
      <point x="250" y="-9"/>
      <point x="219" y="-4"/>
      <point x="211" y="6" type="curve"/>
      <point x="219" y="-216" type="line"/>
      <point x="40" y="-192" type="line"/>
      <point x="40" y="501" type="line"/>
      <point x="219" y="501" type="line"/>
      <point x="219" y="186" type="line"/>
      <point x="219" y="174"/>
      <point x="225" y="169"/>
      <point x="234" y="169" type="curve" smooth="yes"/>
      <point x="244" y="169"/>
      <point x="248" y="177"/>
      <point x="248" y="188" type="curve"/>
      <point x="248" y="498" type="line"/>
      <point x="429" y="511" type="line"/>
    </contour>
  </outline>
</glyph>
<glyph name="AE" format="1">
  <advance width="766" height="962"/>
  <unicode hex="00C6"/>
  <outline>
    <contour>
      <point x="399" y="0" type="line"/>
      <point x="399" y="148" type="line"/>
      <point x="267" y="148" type="line"/>
      <point x="213" y="0" type="line"/>
      <point x="21" y="0" type="line"/>
      <point x="293" y="700" type="line"/>
      <point x="734" y="700" type="line"/>
      <point x="734" y="540" type="line"/>
      <point x="578" y="540" type="line"/>
      <point x="578" y="438" type="line"/>
      <point x="680" y="438" type="line"/>
      <point x="646" y="280" type="line"/>
      <point x="578" y="280" type="line"/>
      <point x="578" y="179" type="line"/>
      <point x="732" y="179" type="line"/>
      <point x="732" y="0" type="line"/>
    </contour>
    <contour>
      <point x="323" y="306" type="line"/>
      <point x="398" y="306" type="line"/>
      <point x="398" y="495" type="line"/>
      <point x="394" y="495" type="line"/>
    </contour>
  </outline>
</glyph>
<glyph name="Oslash" format="2">
  <advance width="495"/>
  <unicode hex="00D8"/>
  <outline>
    <component base="O"/>
    <contour>
      <point x="30" y="0" type="line"/>
      <point x="391" y="701" type="line"/>
      <point x="491" y="701" type="line"/>
      <point x="127" y="0" type="line"/>
    </contour>
  </outline>
</glyph>
<glyph name="Thorn" format="1">
  <advance width="509" height="962"/>
  <unicode hex="00DE"/>
  <outline>
    <contour>
      <point x="259" y="614" type="line" smooth="yes"/>
      <point x="364" y="614"/>
      <point x="480" y="560"/>
      <point x="478" y="352" type="curve" smooth="yes"/>
      <point x="476" y="134"/>
      <point x="367" y="86"/>
      <point x="259" y="86" type="curve" smooth="yes"/>
      <point x="221" y="86" type="line"/>
      <point x="221" y="0" type="line"/>
      <point x="41" y="0" type="line"/>
      <point x="41" y="700" type="line"/>
      <point x="221" y="700" type="line"/>
      <point x="221" y="614" type="line"/>
    </contour>
    <contour>
      <point x="221" y="246" type="line"/>
      <point x="244" y="246" type="line" smooth="yes"/>
      <point x="282" y="246"/>
      <point x="297" y="272"/>
      <point x="297" y="350" type="curve" smooth="yes"/>
      <point x="297" y="422"/>
      <point x="281" y="451"/>
      <point x="244" y="451" type="curve" smooth="yes"/>
      <point x="221" y="451" type="line"/>
    </contour>
  </outline>
</glyph>
<glyph name="hbar" format="2">
  <advance width="464"/>
  <unicode hex="0127"/>
  <outline>
    <component base="h" xOffset="-1"/>
    <contour>
      <point x="297" y="550" type="line"/>
      <point x="1" y="550" type="line"/>
      <point x="1" y="641" type="line"/>
      <point x="297" y="641" type="line"/>
    </contour>
  </outline>
</glyph>
<glyph name="Lslash" format="1">
  <advance width="518" height="962"/>
  <unicode hex="0141"/>
  <outline>
    <component base="L" xOffset="88.5"/>
    <contour>
      <point x="76" y="238" type="line"/>
      <point x="21" y="360" type="line"/>
      <point x="363" y="513" type="line"/>
      <point x="419" y="393" type="line"/>
    </contour>
  </outline>
</glyph>
<glyph name="lslash" format="1">
  <advance width="439" height="962"/>
  <unicode hex="0142"/>
  <outline>
    <component base="l" xOffset="87"/>
    <contour>
      <point x="377" y="489" type="line"/>
      <point x="413" y="409" type="line"/>
      <point x="59" y="248" type="line"/>
      <point x="22" y="329" type="line"/>
    </contour>
  </outline>
</glyph>
<glyph name="Eng" format="1">
  <advance width="579" height="962"/>
  <unicode hex="014A"/>
  <outline>
    <contour>
      <point x="536" y="-7" type="line" smooth="yes"/>
      <point x="536" y="-156"/>
      <point x="429" y="-214"/>
      <point x="303" y="-214" type="curve"/>
      <point x="268" y="-76" type="line"/>
      <point x="311" y="-78"/>
      <point x="353" y="-55"/>
      <point x="353" y="-14" type="curve" smooth="yes"/>
      <point x="353" y="0" type="line"/>
      <point x="221" y="296" type="line"/>
      <point x="222" y="0" type="line"/>
      <point x="41" y="0" type="line"/>
      <point x="41" y="700" type="line"/>
      <point x="222" y="700" type="line"/>
      <point x="352" y="393" type="line"/>
      <point x="353" y="700" type="line"/>
      <point x="536" y="700" type="line"/>
    </contour>
  </outline>
</glyph>
<glyph name="tbar" format="1">
  <advance width="362" height="962"/>
  <unicode hex="0167"/>
  <outline>
    <component base="t" xOffset="27"/>
    <contour>
      <point x="316" y="179" type="line"/>
      <point x="1" y="179" type="line"/>
      <point x="1" y="295" type="line"/>
      <point x="316" y="295" type="line"/>
    </contour>
  </outline>
</glyph>
<glyph name="dotlessj" format="1">
  <advance width="316" height="962"/>
  <unicode hex="0237"/>
  <outline>
    <contour>
      <point x="277" y="-21" type="line" smooth="yes"/>
      <point x="277" y="-134"/>
      <point x="197" y="-216"/>
      <point x="54" y="-216" type="curve"/>
      <point x="24" y="-90" type="line"/>
      <point x="66" y="-87"/>
      <point x="97" y="-63"/>
      <point x="97" y="-14" type="curve" smooth="yes"/>
      <point x="97" y="353" type="line"/>
      <point x="28" y="361" type="line"/>
      <point x="28" y="501" type="line"/>
      <point x="277" y="501" type="line"/>
    </contour>
  </outline>
</glyph>
<glyph name="hungarumlaut" format="1">
  <advance width="267" height="962"/>
  <unicode hex="02DD"/>
  <outline>
    <contour>
      <point x="154" y="638" type="curve" smooth="yes"/>
      <point x="102" y="571" type="line"/>
      <point x="13" y="571" type="line"/>
      <point x="44" y="688" type="line" smooth="yes"/>
      <point x="53" y="723"/>
      <point x="97" y="758"/>
      <point x="141" y="735" type="curve" smooth="yes"/>
      <point x="182" y="714"/>
      <point x="175" y="665"/>
    </contour>
    <contour>
      <point x="308" y="638" type="curve" smooth="yes"/>
      <point x="256" y="571" type="line"/>
      <point x="167" y="571" type="line"/>
      <point x="198" y="688" type="line" smooth="yes"/>
      <point x="207" y="723"/>
      <point x="251" y="758"/>
      <point x="295" y="735" type="curve" smooth="yes"/>
      <point x="336" y="714"/>
      <point x="329" y="665"/>
    </contour>
  </outline>
</glyph>
<glyph name="dieresistonos" format="2">
  <advance width="267" height="962"/>
  <unicode hex="0385"/>
  <outline>
    <contour>
      <point x="86" y="695" type="curve" smooth="yes"/>
      <point x="86" y="657"/>
      <point x="57" y="628"/>
      <point x="18" y="628" type="curve" smooth="yes"/>
      <point x="-20" y="628"/>
      <point x="-50" y="657"/>
      <point x="-50" y="695" type="curve" smooth="yes"/>
      <point x="-50" y="734"/>
      <point x="-20" y="762"/>
      <point x="18" y="762" type="curve" smooth="yes"/>
      <point x="57" y="762"/>
      <point x="86" y="734"/>
    </contour>
    <contour>
      <point x="321" y="695" type="curve" smooth="yes"/>
      <point x="321" y="658"/>
      <point x="290" y="628"/>
      <point x="253" y="628" type="curve" smooth="yes"/>
      <point x="214" y="628"/>
      <point x="185" y="658"/>
      <point x="185" y="695" type="curve" smooth="yes"/>
      <point x="185" y="734"/>
      <point x="214" y="762"/>
      <point x="253" y="762" type="curve" smooth="yes"/>
      <point x="290" y="762"/>
      <point x="321" y="734"/>
    </contour>
    <contour>
      <point x="231" y="805" type="curve" smooth="yes"/>
      <point x="179" y="738" type="line"/>
      <point x="90" y="738" type="line"/>
      <point x="121" y="855" type="line" smooth="yes"/>
      <point x="130" y="890"/>
      <point x="174" y="925"/>
      <point x="218" y="902" type="curve" smooth="yes"/>
      <point x="259" y="881"/>
      <point x="252" y="832"/>
    </contour>
  </outline>
</glyph>
<glyph name="Gamma" format="1">
  <advance width="387" height="962"/>
  <unicode hex="0393"/>
  <outline>
    <contour>
      <point x="41" y="0" type="line"/>
      <point x="41" y="700" type="line"/>
      <point x="375" y="700" type="line"/>
      <point x="375" y="540" type="line"/>
      <point x="221" y="540" type="line"/>
      <point x="221" y="0" type="line"/>
    </contour>
  </outline>
</glyph>
<glyph name="Lambda" format="1">
  <advance width="545" height="962"/>
  <unicode hex="039B"/>
  <outline>
    <contour>
      <point x="271" y="514" type="line"/>
      <point x="201" y="0" type="line"/>
      <point x="20" y="0" type="line"/>
      <point x="135" y="700" type="line"/>
      <point x="409" y="700" type="line"/>
      <point x="527" y="0" type="line"/>
      <point x="346" y="0" type="line"/>
    </contour>
  </outline>
</glyph>
<glyph name="Sigma" format="2">
  <advance width="525"/>
  <unicode hex="03A3"/>
  <outline>
    <contour>
      <point x="339" y="161" type="line" smooth="yes"/>
      <point x="372" y="161"/>
      <point x="386" y="163"/>
      <point x="395" y="191" type="curve"/>
      <point x="515" y="107" type="line"/>
      <point x="489" y="36"/>
      <point x="428" y="0"/>
      <point x="349" y="0" type="curve" smooth="yes"/>
      <point x="25" y="0" type="line"/>
      <point x="171" y="374" type="line"/>
      <point x="41" y="701" type="line"/>
      <point x="471" y="701" type="line"/>
      <point x="410" y="553" type="line"/>
      <point x="280" y="553" type="line"/>
      <point x="350" y="376" type="line"/>
      <point x="263" y="161" type="line"/>
    </contour>
  </outline>
</glyph>
<glyph name="Chi" format="2">
  <advance width="629" height="962"/>
  <unicode hex="03A7"/>
  <outline>
    <contour>
      <point x="315" y="521" type="line"/>
      <point x="397" y="700" type="line"/>
      <point x="591" y="700" type="line"/>
      <point x="413" y="364" type="line"/>
      <point x="605" y="0" type="line"/>
      <point x="417" y="0" type="line"/>
      <point x="315" y="199" type="line"/>
      <point x="214" y="0" type="line"/>
      <point x="26" y="0" type="line"/>
      <point x="217" y="364" type="line"/>
      <point x="38" y="700" type="line"/>
      <point x="230" y="700" type="line"/>
    </contour>
  </outline>
  <guideline angle="121.5" x="468.457" y="0"/>
  <guideline angle="58.5" x="163.249" y="0"/>
  <guideline angle="58.5" x="26.5" y="0"/>
  <guideline angle="121.5" x="602.756" y="1"/>
</glyph>
<glyph name="iotatonos" format="2">
  <advance width="258" height="962"/>
  <unicode hex="03AF"/>
  <outline>
    <component base="dotlessi"/>
    <contour>
      <point x="226" y="620" type="curve" smooth="yes"/>
      <point x="174" y="553" type="line"/>
      <point x="85" y="553" type="line"/>
      <point x="116" y="670" type="line" smooth="yes"/>
      <point x="125" y="705"/>
      <point x="169" y="740"/>
      <point x="213" y="717" type="curve" smooth="yes"/>
      <point x="254" y="696"/>
      <point x="247" y="647"/>
    </contour>
  </outline>
</glyph>
<glyph name="alpha" format="2">
  <advance width="461"/>
  <unicode hex="03B1"/>
  <outline>
    <contour>
      <point x="425" y="487" type="line"/>
      <point x="421" y="445"/>
      <point x="419" y="412"/>
      <point x="419" y="390" type="curve" smooth="yes"/>
      <point x="419" y="5" type="line"/>
      <point x="420" y="5"/>
      <point x="273" y="-4"/>
      <point x="197" y="-4" type="curve" smooth="yes"/>
      <point x="73" y="-4"/>
      <point x="33" y="77"/>
      <point x="33" y="170" type="curve" smooth="yes"/>
      <point x="33" y="355" type="line" smooth="yes"/>
      <point x="33" y="471"/>
      <point x="100" y="510"/>
      <point x="169" y="510" type="curve" smooth="yes"/>
      <point x="220" y="510"/>
      <point x="254" y="496"/>
      <point x="261" y="493" type="curve"/>
      <point x="261" y="493"/>
      <point x="265" y="505"/>
      <point x="270" y="515" type="curve"/>
    </contour>
    <contour>
      <point x="213" y="156" type="line" smooth="yes"/>
      <point x="213" y="147"/>
      <point x="219" y="143"/>
      <point x="226" y="143" type="curve" smooth="yes"/>
      <point x="230" y="143"/>
      <point x="235" y="143"/>
      <point x="239" y="144" type="curve"/>
      <point x="239" y="356" type="line"/>
      <point x="235" y="358"/>
      <point x="229" y="360"/>
      <point x="226" y="360" type="curve" smooth="yes"/>
      <point x="222" y="360"/>
      <point x="213" y="359"/>
      <point x="213" y="350" type="curve" smooth="yes"/>
    </contour>
  </outline>
</glyph>
<glyph name="beta" format="2">
  <advance width="454"/>
  <unicode hex="03B2"/>
  <outline>
    <contour>
      <point x="40" y="523" type="line" smooth="yes"/>
      <point x="40" y="619"/>
      <point x="94" y="704"/>
      <point x="232" y="704" type="curve" smooth="yes"/>
      <point x="341" y="704"/>
      <point x="413" y="644"/>
      <point x="413" y="534" type="curve" smooth="yes"/>
      <point x="413" y="487"/>
      <point x="397" y="425"/>
      <point x="332" y="393" type="curve"/>
      <point x="351" y="393" type="line" smooth="yes"/>
      <point x="382" y="393"/>
      <point x="427" y="359"/>
      <point x="427" y="298" type="curve" smooth="yes"/>
      <point x="427" y="125" type="line" smooth="yes"/>
      <point x="427" y="20"/>
      <point x="367" y="-11"/>
      <point x="294" y="-11" type="curve" smooth="yes"/>
      <point x="277" y="-11"/>
      <point x="238" y="-8"/>
      <point x="221" y="-4" type="curve"/>
      <point x="221" y="-217" type="line"/>
      <point x="40" y="-192" type="line"/>
    </contour>
    <contour>
      <point x="221" y="517" type="curve" smooth="yes"/>
      <point x="221" y="437" type="line"/>
      <point x="228" y="450" type="line" smooth="yes"/>
      <point x="239" y="468"/>
      <point x="247" y="494"/>
      <point x="247" y="516" type="curve" smooth="yes"/>
      <point x="247" y="529"/>
      <point x="241" y="534"/>
      <point x="234" y="534" type="curve" smooth="yes"/>
      <point x="226" y="534"/>
      <point x="221" y="530"/>
    </contour>
    <contour>
      <point x="221" y="175" type="line"/>
      <point x="221" y="175"/>
      <point x="228" y="174"/>
      <point x="232" y="174" type="curve" smooth="yes"/>
      <point x="245" y="174"/>
      <point x="247" y="183"/>
      <point x="247" y="198" type="curve" smooth="yes"/>
      <point x="247" y="266" type="line" smooth="yes"/>
      <point x="247" y="278"/>
      <point x="243" y="280"/>
      <point x="237" y="280" type="curve" smooth="yes"/>
      <point x="232" y="280"/>
      <point x="229" y="279"/>
      <point x="225" y="278" type="curve" smooth="yes"/>
      <point x="221" y="277" type="line"/>
    </contour>
  </outline>
</glyph>
<glyph name="delta" format="2">
  <advance width="445"/>
  <unicode hex="03B4"/>
  <outline>
    <contour>
      <point x="264" y="520" type="line" smooth="yes"/>
      <point x="258" y="520"/>
      <point x="253" y="517"/>
      <point x="253" y="510" type="curve" smooth="yes"/>
      <point x="253" y="503"/>
      <point x="260" y="498"/>
      <point x="265" y="494" type="curve" smooth="yes"/>
      <point x="307" y="462"/>
      <point x="343" y="439"/>
      <point x="378" y="398" type="curve" smooth="yes"/>
      <point x="402" y="370"/>
      <point x="414" y="328"/>
      <point x="414" y="281" type="curve" smooth="yes"/>
      <point x="414" y="184" type="line" smooth="yes"/>
      <point x="414" y="58"/>
      <point x="332" y="-11"/>
      <point x="220" y="-11" type="curve" smooth="yes"/>
      <point x="100" y="-11"/>
      <point x="30" y="59"/>
      <point x="30" y="184" type="curve" smooth="yes"/>
      <point x="30" y="317" type="line" smooth="yes"/>
      <point x="30" y="386"/>
      <point x="55" y="442"/>
      <point x="124" y="460" type="curve"/>
      <point x="105" y="483" type="line" smooth="yes"/>
      <point x="78" y="515"/>
      <point x="68" y="541"/>
      <point x="68" y="575" type="curve" smooth="yes"/>
      <point x="68" y="665"/>
      <point x="147" y="702"/>
      <point x="215" y="702" type="curve" smooth="yes"/>
      <point x="369" y="702" type="line"/>
      <point x="348" y="520" type="line"/>
    </contour>
    <contour>
      <point x="234" y="297" type="line" smooth="yes"/>
      <point x="234" y="305"/>
      <point x="234" y="316"/>
      <point x="227" y="326" type="curve" smooth="yes"/>
      <point x="224" y="330" type="line"/>
      <point x="211" y="322"/>
      <point x="209" y="310"/>
      <point x="209" y="296" type="curve" smooth="yes"/>
      <point x="209" y="193" type="line" smooth="yes"/>
      <point x="209" y="180"/>
      <point x="212" y="168"/>
      <point x="221" y="168" type="curve" smooth="yes"/>
      <point x="231" y="168"/>
      <point x="234" y="180"/>
      <point x="234" y="193" type="curve" smooth="yes"/>
    </contour>
  </outline>
</glyph>
<glyph name="kappa" format="1">
  <advance width="524" height="962"/>
  <unicode hex="03BA"/>
  <outline>
    <contour>
      <point x="408" y="196" type="line" smooth="yes"/>
      <point x="440" y="141"/>
      <point x="468" y="148"/>
      <point x="493" y="148" type="curve" smooth="yes"/>
      <point x="496" y="148" type="line"/>
      <point x="496" y="0" type="line"/>
      <point x="440" y="0" type="line" smooth="yes"/>
      <point x="364" y="0"/>
      <point x="305" y="20"/>
      <point x="276" y="80" type="curve" smooth="yes"/>
      <point x="247" y="140" type="line"/>
      <point x="220" y="99" type="line"/>
      <point x="220" y="0" type="line"/>
      <point x="40" y="0" type="line"/>
      <point x="40" y="512" type="line"/>
      <point x="220" y="500" type="line"/>
      <point x="220" y="363" type="line"/>
      <point x="305" y="500" type="line"/>
      <point x="497" y="500" type="line"/>
      <point x="354" y="288" type="line"/>
    </contour>
  </outline>
</glyph>
<glyph name="rho" format="2">
  <advance width="455"/>
  <unicode hex="03C1"/>
  <outline>
    <contour>
      <point x="423" y="171" type="line" smooth="yes"/>
      <point x="423" y="49"/>
      <point x="362" y="-17"/>
      <point x="281" y="-17" type="curve" smooth="yes"/>
      <point x="258" y="-17"/>
      <point x="233" y="-12"/>
      <point x="216" y="-6" type="curve"/>
      <point x="216" y="-217" type="line"/>
      <point x="36" y="-193" type="line"/>
      <point x="36" y="312" type="line" smooth="yes"/>
      <point x="36" y="439"/>
      <point x="106" y="508"/>
      <point x="234" y="508" type="curve" smooth="yes"/>
      <point x="354" y="508"/>
      <point x="423" y="434"/>
      <point x="423" y="312" type="curve" smooth="yes"/>
    </contour>
    <contour>
      <point x="243" y="307" type="line"/>
      <point x="243" y="318"/>
      <point x="238" y="325"/>
      <point x="229" y="325" type="curve" smooth="yes"/>
      <point x="221" y="325"/>
      <point x="216" y="319"/>
      <point x="216" y="307" type="curve"/>
      <point x="216" y="180" type="line"/>
      <point x="216" y="168"/>
      <point x="225" y="163"/>
      <point x="231" y="163" type="curve" smooth="yes"/>
      <point x="239" y="163"/>
      <point x="243" y="172"/>
      <point x="243" y="187" type="curve"/>
    </contour>
  </outline>
</glyph>
<glyph name="sigma1" format="2">
  <advance width="382" height="962"/>
  <unicode hex="03C2"/>
  <outline>
    <contour>
      <point x="208" y="233" type="line" smooth="yes"/>
      <point x="208" y="189"/>
      <point x="223" y="179"/>
      <point x="249" y="143" type="curve" smooth="yes"/>
      <point x="275" y="106" type="line" smooth="yes"/>
      <point x="295" y="78"/>
      <point x="320" y="37"/>
      <point x="320" y="-21" type="curve" smooth="yes"/>
      <point x="320" y="-71"/>
      <point x="288" y="-114"/>
      <point x="253" y="-148" type="curve"/>
      <point x="132" y="-83" type="line"/>
      <point x="140" y="-73"/>
      <point x="150" y="-57"/>
      <point x="150" y="-39" type="curve" smooth="yes"/>
      <point x="150" y="-17"/>
      <point x="143" y="0"/>
      <point x="130" y="17" type="curve" smooth="yes"/>
      <point x="104" y="50" type="line" smooth="yes"/>
      <point x="84" y="76"/>
      <point x="28" y="129"/>
      <point x="28" y="219" type="curve" smooth="yes"/>
      <point x="28" y="340" type="line" smooth="yes"/>
      <point x="28" y="428"/>
      <point x="81" y="507"/>
      <point x="205" y="507" type="curve" smooth="yes"/>
      <point x="246" y="507"/>
      <point x="290" y="495"/>
      <point x="324" y="471" type="curve"/>
      <point x="288" y="310" type="line"/>
      <point x="276" y="316"/>
      <point x="261" y="321"/>
      <point x="243" y="321" type="curve" smooth="yes"/>
      <point x="212" y="321"/>
      <point x="208" y="302"/>
      <point x="208" y="285" type="curve" smooth="yes"/>
    </contour>
  </outline>
</glyph>
<glyph name="upsilon" format="1">
  <advance width="460" height="962"/>
  <unicode hex="03C5"/>
  <outline>
    <contour>
      <point x="424" y="185" type="line" smooth="yes"/>
      <point x="424" y="67"/>
      <point x="361" y="-10"/>
      <point x="235" y="-10" type="curve" smooth="yes"/>
      <point x="96" y="-10"/>
      <point x="37" y="83"/>
      <point x="37" y="185" type="curve" smooth="yes"/>
      <point x="37" y="501" type="line"/>
      <point x="217" y="501" type="line"/>
      <point x="217" y="190" type="line"/>
      <point x="217" y="177"/>
      <point x="221" y="166"/>
      <point x="231" y="166" type="curve" smooth="yes"/>
      <point x="240" y="166"/>
      <point x="244" y="176"/>
      <point x="244" y="190" type="curve"/>
      <point x="244" y="501" type="line"/>
      <point x="424" y="501" type="line"/>
    </contour>
  </outline>
</glyph>
<glyph name="uni0402" format="1">
  <advance width="582" height="962"/>
  <unicode hex="0402"/>
  <outline>
    <component base="T" xOffset="13"/>
    <contour>
      <point x="409" y="510" type="curve" smooth="yes"/>
      <point x="488" y="510"/>
      <point x="554" y="474"/>
      <point x="554" y="345" type="curve" smooth="yes"/>
      <point x="554" y="131" type="line" smooth="yes"/>
      <point x="554" y="37"/>
      <point x="503" y="-12"/>
      <point x="401" y="-14" type="curve"/>
      <point x="343" y="139" type="line"/>
      <point x="361" y="139"/>
      <point x="374" y="146"/>
      <point x="374" y="174" type="curve" smooth="yes"/>
      <point x="374" y="304" type="line" smooth="yes"/>
      <point x="374" y="327"/>
      <point x="358" y="344"/>
      <point x="332" y="344" type="curve" smooth="yes"/>
      <point x="324" y="344"/>
      <point x="316" y="344"/>
      <point x="308" y="344" type="curve"/>
      <point x="308" y="485" type="line"/>
      <point x="331" y="501"/>
      <point x="372" y="510"/>
    </contour>
  </outline>
</glyph>
<glyph name="uni0414" format="2">
  <advance width="684"/>
  <unicode hex="0414"/>
  <outline>
    <contour>
      <point x="610" y="160" type="line"/>
      <point x="672" y="160" type="line"/>
      <point x="672" y="-106" type="line"/>
      <point x="513" y="-106" type="line"/>
      <point x="492" y="-1" type="line"/>
      <point x="192" y="-1" type="line"/>
      <point x="171" y="-106" type="line"/>
      <point x="13" y="-106" type="line"/>
      <point x="13" y="160" type="line"/>
      <point x="87" y="160" type="line"/>
      <point x="207" y="556" type="line" smooth="yes"/>
      <point x="226" y="620"/>
      <point x="256" y="700"/>
      <point x="376" y="700" type="curve" smooth="yes"/>
      <point x="610" y="700" type="line"/>
    </contour>
    <contour>
      <point x="430" y="160" type="line"/>
      <point x="430" y="540" type="line"/>
      <point x="416" y="540" type="line" smooth="yes"/>
      <point x="384" y="540"/>
      <point x="377" y="510"/>
      <point x="362" y="460" type="curve" smooth="yes"/>
      <point x="273" y="160" type="line"/>
    </contour>
  </outline>
</glyph>
<glyph name="uni0418" format="2">
  <advance width="578"/>
  <unicode hex="0418"/>
  <outline>
    <contour>
      <point x="41" y="700" type="line"/>
      <point x="221" y="700" type="line"/>
      <point x="221" y="400" type="line"/>
      <point x="355" y="700" type="line"/>
      <point x="535" y="700" type="line"/>
      <point x="535" y="0" type="line"/>
      <point x="355" y="0" type="line"/>
      <point x="355" y="285" type="line"/>
      <point x="221" y="0" type="line"/>
      <point x="41" y="0" type="line"/>
    </contour>
  </outline>
</glyph>
<glyph name="uni0423" format="1">
  <advance width="522" height="962"/>
  <unicode hex="0423"/>
  <outline>
    <contour>
      <point x="332" y="700" type="line"/>
      <point x="514" y="700" type="line"/>
      <point x="356" y="161" type="line" smooth="yes"/>
      <point x="322" y="44"/>
      <point x="221" y="-12"/>
      <point x="85" y="-22" type="curve"/>
      <point x="32" y="91" type="line"/>
      <point x="119" y="116"/>
      <point x="163" y="123"/>
      <point x="186" y="198" type="curve" smooth="yes"/>
      <point x="190" y="211" type="line"/>
      <point x="10" y="700" type="line"/>
      <point x="198" y="700" type="line"/>
      <point x="268" y="475" type="line"/>
    </contour>
  </outline>
</glyph>
<glyph name="uni0428" format="1">
  <advance width="677" height="962"/>
  <unicode hex="0428"/>
  <outline>
    <contour>
      <point x="458" y="700" type="line"/>
      <point x="636" y="700" type="line"/>
      <point x="636" y="0" type="line"/>
      <point x="44" y="0" type="line"/>
      <point x="44" y="700" type="line"/>
      <point x="224" y="700" type="line"/>
      <point x="224" y="160" type="line"/>
      <point x="251" y="160" type="line"/>
      <point x="251" y="700" type="line"/>
      <point x="431" y="700" type="line"/>
      <point x="431" y="160" type="line"/>
      <point x="458" y="160" type="line"/>
    </contour>
  </outline>
</glyph>
<glyph name="uni042C" format="1">
  <advance width="455" height="962"/>
  <unicode hex="042C"/>
  <outline>
    <contour>
      <point x="296" y="411" type="line" smooth="yes"/>
      <point x="370" y="411"/>
      <point x="428" y="366"/>
      <point x="428" y="264" type="curve" smooth="yes"/>
      <point x="428" y="156" type="line" smooth="yes"/>
      <point x="428" y="28"/>
      <point x="336" y="-11"/>
      <point x="262" y="-11" type="curve" smooth="yes"/>
      <point x="154" y="-11"/>
      <point x="42" y="0"/>
      <point x="42" y="0" type="curve"/>
      <point x="42" y="700" type="line"/>
      <point x="223" y="700" type="line"/>
      <point x="223" y="411" type="line"/>
    </contour>
    <contour>
      <point x="251" y="165" type="curve" smooth="yes"/>
      <point x="251" y="236" type="line" smooth="yes"/>
      <point x="251" y="251"/>
      <point x="243" y="255"/>
      <point x="234" y="255" type="curve" smooth="yes"/>
      <point x="223" y="255" type="line"/>
      <point x="223" y="148" type="line"/>
      <point x="223" y="148"/>
      <point x="230" y="146"/>
      <point x="235" y="146" type="curve" smooth="yes"/>
      <point x="246" y="146"/>
      <point x="251" y="153"/>
    </contour>
  </outline>
</glyph>
<glyph name="uni042D" format="1">
  <advance width="427" height="962"/>
  <unicode hex="042D"/>
  <outline>
    <contour>
      <point x="92" y="540" type="curve"/>
      <point x="60" y="677" type="line"/>
      <point x="108" y="701"/>
      <point x="156" y="712"/>
      <point x="204" y="712" type="curve" smooth="yes"/>
      <point x="314" y="712"/>
      <point x="397" y="643"/>
      <point x="397" y="511" type="curve" smooth="yes"/>
      <point x="397" y="184" type="line" smooth="yes"/>
      <point x="397" y="58"/>
      <point x="323" y="-12"/>
      <point x="199" y="-12" type="curve" smooth="yes"/>
      <point x="148" y="-12"/>
      <point x="94" y="1"/>
      <point x="36" y="23" type="curve"/>
      <point x="50" y="167" type="line"/>
      <point x="62" y="160"/>
      <point x="108" y="147"/>
      <point x="151" y="147" type="curve" smooth="yes"/>
      <point x="194" y="147"/>
      <point x="217" y="164"/>
      <point x="217" y="211" type="curve" smooth="yes"/>
      <point x="217" y="483" type="line" smooth="yes"/>
      <point x="217" y="530"/>
      <point x="192" y="548"/>
      <point x="145" y="548" type="curve" smooth="yes"/>
      <point x="123" y="548"/>
      <point x="110" y="547"/>
    </contour>
    <contour>
      <point x="307" y="438" type="line"/>
      <point x="307" y="279" type="line"/>
      <point x="147" y="279" type="line"/>
      <point x="111" y="438" type="line"/>
    </contour>
  </outline>
</glyph>
<glyph name="uni0434" format="2">
  <advance width="621"/>
  <unicode hex="0434"/>
  <outline>
    <contour>
      <point x="553" y="160" type="line"/>
      <point x="609" y="160" type="line"/>
      <point x="609" y="-126" type="line"/>
      <point x="448" y="-126" type="line"/>
      <point x="427" y="-1" type="line"/>
      <point x="188" y="-1" type="line"/>
      <point x="167" y="-126" type="line"/>
      <point x="10" y="-126" type="line"/>
      <point x="10" y="160" type="line"/>
      <point x="91" y="160" type="line"/>
      <point x="148" y="350" type="line" smooth="yes"/>
      <point x="167" y="415"/>
      <point x="196" y="501"/>
      <point x="316" y="501" type="curve" smooth="yes"/>
      <point x="553" y="501" type="line"/>
    </contour>
    <contour>
      <point x="278" y="160" type="line"/>
      <point x="373" y="160" type="line"/>
      <point x="373" y="341" type="line"/>
      <point x="346" y="341" type="line" smooth="yes"/>
      <point x="336" y="341"/>
      <point x="329" y="334"/>
      <point x="323" y="315" type="curve" smooth="yes"/>
    </contour>
  </outline>
</glyph>
<glyph name="uni043B" format="1">
  <advance width="599" height="962"/>
  <unicode hex="043B"/>
  <outline>
    <contour>
      <point x="321" y="500" type="curve" smooth="yes"/>
      <point x="558" y="500" type="line"/>
      <point x="558" y="1" type="line"/>
      <point x="378" y="1" type="line"/>
      <point x="378" y="340" type="line"/>
      <point x="365" y="340" type="line" smooth="yes"/>
      <point x="346" y="340"/>
      <point x="336" y="329"/>
      <point x="329" y="307" type="curve" smooth="yes"/>
      <point x="284" y="159" type="line" smooth="yes"/>
      <point x="250" y="47"/>
      <point x="157" y="-12"/>
      <point x="54" y="-24" type="curve"/>
      <point x="-1" y="107" type="line"/>
      <point x="60" y="127"/>
      <point x="95" y="145"/>
      <point x="114" y="213" type="curve" smooth="yes"/>
      <point x="153" y="350" type="line" smooth="yes"/>
      <point x="171" y="414"/>
      <point x="201" y="500"/>
    </contour>
  </outline>
</glyph>
<glyph name="uni043D" format="1">
  <advance width="465" height="962"/>
  <unicode hex="043D"/>
  <outline>
    <contour>
      <point x="247" y="326" type="line"/>
      <point x="247" y="500" type="line"/>
      <point x="426" y="500" type="line"/>
      <point x="426" y="0" type="line"/>
      <point x="247" y="0" type="line"/>
      <point x="247" y="221" type="line"/>
      <point x="219" y="221" type="line"/>
      <point x="219" y="0" type="line"/>
      <point x="37" y="0" type="line"/>
      <point x="37" y="500" type="line"/>
      <point x="219" y="500" type="line"/>
      <point x="219" y="326" type="line"/>
    </contour>
  </outline>
</glyph>
<glyph name="uni0446" format="2">
  <advance width="536"/>
  <unicode hex="0446"/>
  <outline>
    <contour>
      <point x="421" y="500" type="line"/>
      <point x="421" y="160" type="line"/>
      <point x="519" y="160" type="line"/>
      <point x="519" y="-125" type="line"/>
      <point x="360" y="-125" type="line"/>
      <point x="339" y="0" type="line"/>
      <point x="37" y="0" type="line"/>
      <point x="37" y="500" type="line"/>
      <point x="216" y="500" type="line"/>
      <point x="216" y="160" type="line"/>
      <point x="243" y="160" type="line"/>
      <point x="243" y="500" type="line"/>
    </contour>
  </outline>
</glyph>
<glyph name="uni0449" format="2">
  <advance width="726"/>
  <unicode hex="0449"/>
  <outline>
    <component base="uni0448"/>
    <contour>
      <point x="505" y="149" type="line"/>
      <point x="709" y="149" type="line"/>
      <point x="709" y="-125" type="line"/>
      <point x="557" y="-125" type="line"/>
      <point x="536" y="0" type="line"/>
      <point x="505" y="0" type="line"/>
    </contour>
  </outline>
</glyph>
<glyph name="uni044C" format="2">
  <advance width="456" height="962"/>
  <unicode hex="044C"/>
  <outline>
    <contour>
      <point x="244" y="360" type="line" smooth="yes"/>
      <point x="336" y="360"/>
      <point x="432" y="313"/>
      <point x="432" y="181" type="curve" smooth="yes"/>
      <point x="432" y="52"/>
      <point x="364" y="-9"/>
      <point x="226" y="-9" type="curve" smooth="yes"/>
      <point x="164" y="-9"/>
      <point x="40" y="2"/>
      <point x="40" y="2" type="curve"/>
      <point x="40" y="500" type="line"/>
      <point x="220" y="500" type="line"/>
      <point x="220" y="360" type="line"/>
    </contour>
    <contour>
      <point x="238" y="150" type="curve" smooth="yes"/>
      <point x="246" y="150"/>
      <point x="252" y="156"/>
      <point x="252" y="176" type="curve" smooth="yes"/>
      <point x="252" y="194"/>
      <point x="247" y="201"/>
      <point x="240" y="201" type="curve" smooth="yes"/>
      <point x="220" y="201" type="line"/>
      <point x="220" y="151" type="line"/>
      <point x="225" y="151"/>
      <point x="235" y="150"/>
    </contour>
  </outline>
</glyph>
<glyph name="uni044E" format="2">
  <advance width="694"/>
  <unicode hex="044E"/>
  <outline>
    <component base="o" xOffset="242"/>
    <component base="dotlessi"/>
    <contour>
      <point x="127" y="331" type="line"/>
      <point x="363" y="331" type="line"/>
      <point x="363" y="170" type="line"/>
      <point x="127" y="170" type="line"/>
    </contour>
  </outline>
</glyph>
<glyph name="uni044F" format="1">
  <advance width="473" height="962"/>
  <unicode hex="044F"/>
  <outline>
    <contour>
      <point x="213" y="511" type="curve" smooth="yes"/>
      <point x="275" y="511"/>
      <point x="440" y="500"/>
      <point x="440" y="500" type="curve"/>
      <point x="440" y="0" type="line"/>
      <point x="260" y="0" type="line"/>
      <point x="260" y="168" type="line"/>
      <point x="249" y="168" type="line" smooth="yes"/>
      <point x="248" y="168"/>
      <point x="246" y="168"/>
      <point x="244" y="168" type="curve"/>
      <point x="226" y="0" type="line"/>
      <point x="32" y="0" type="line"/>
      <point x="84" y="209" type="line"/>
      <point x="76" y="216"/>
      <point x="23" y="255"/>
      <point x="23" y="347" type="curve" smooth="yes"/>
      <point x="23" y="445"/>
      <point x="85" y="511"/>
    </contour>
    <contour>
      <point x="227" y="318" type="curve" smooth="yes"/>
      <point x="260" y="318" type="line"/>
      <point x="260" y="357" type="line"/>
      <point x="248" y="358"/>
      <point x="237" y="358"/>
      <point x="231" y="358" type="curve" smooth="yes"/>
      <point x="214" y="358"/>
      <point x="202" y="353"/>
      <point x="202" y="337" type="curve" smooth="yes"/>
      <point x="202" y="323"/>
      <point x="212" y="318"/>
    </contour>
  </outline>
</glyph>
<glyph name="uni045F" format="2">
  <advance width="444"/>
  <unicode hex="045F"/>
  <outline>
    <contour>
      <point x="422" y="500" type="line"/>
      <point x="422" y="0" type="line"/>
      <point x="318" y="0" type="line"/>
      <point x="307" y="-125" type="line"/>
      <point x="152" y="-125" type="line"/>
      <point x="141" y="0" type="line"/>
      <point x="35" y="0" type="line"/>
      <point x="35" y="500" type="line"/>
      <point x="215" y="500" type="line"/>
      <point x="215" y="160" type="line"/>
      <point x="243" y="160" type="line"/>
      <point x="243" y="500" type="line"/>
    </contour>
  </outline>
</glyph>
<glyph name="uni0462" format="2">
  <advance width="477" height="962"/>
  <unicode hex="0462"/>
  <outline>
    <component base="uni042C" xOffset="22"/>
    <contour>
      <point x="0" y="641" type="line"/>
      <point x="359" y="641" type="line"/>
      <point x="359" y="526" type="line"/>
      <point x="0" y="526" type="line"/>
    </contour>
  </outline>
</glyph>
<glyph name="uni046A" format="1">
  <advance width="668" height="962"/>
  <unicode hex="046A"/>
  <outline>
    <contour>
      <point x="497" y="376" type="line" smooth="yes"/>
      <point x="568" y="376"/>
      <point x="629" y="307"/>
      <point x="629" y="231" type="curve" smooth="yes"/>
      <point x="629" y="0" type="line"/>
      <point x="449" y="0" type="line"/>
      <point x="449" y="165" type="line"/>
      <point x="449" y="205"/>
      <point x="443" y="216"/>
      <point x="427" y="216" type="curve" smooth="yes"/>
      <point x="421" y="216" type="line"/>
      <point x="421" y="0" type="line"/>
      <point x="242" y="0" type="line"/>
      <point x="242" y="216" type="line"/>
      <point x="237" y="216" type="line" smooth="yes"/>
      <point x="220" y="216"/>
      <point x="215" y="205"/>
      <point x="215" y="166" type="curve"/>
      <point x="215" y="0" type="line"/>
      <point x="36" y="0" type="line"/>
      <point x="36" y="233" type="line" smooth="yes"/>
      <point x="36" y="309"/>
      <point x="95" y="376"/>
      <point x="162" y="376" type="curve" smooth="yes"/>
      <point x="175" y="376" type="line"/>
      <point x="56" y="700" type="line"/>
      <point x="602" y="700" type="line"/>
      <point x="487" y="376" type="line"/>
    </contour>
    <contour>
      <point x="329" y="434" type="line"/>
      <point x="361" y="540" type="line"/>
      <point x="297" y="540" type="line"/>
    </contour>
  </outline>
</glyph>
<glyph name="uni046B" format="1">
  <advance width="643" height="962"/>
  <unicode hex="046B"/>
  <outline>
    <contour>
      <point x="501" y="302" type="line" smooth="yes"/>
      <point x="579" y="302"/>
      <point x="618" y="234"/>
      <point x="618" y="172" type="curve" smooth="yes"/>
      <point x="618" y="0" type="line"/>
      <point x="440" y="0" type="line"/>
      <point x="440" y="109" type="line" smooth="yes"/>
      <point x="440" y="133"/>
      <point x="434" y="142"/>
      <point x="418" y="142" type="curve" smooth="yes"/>
      <point x="412" y="142" type="line"/>
      <point x="412" y="0" type="line"/>
      <point x="234" y="0" type="line"/>
      <point x="234" y="142" type="line"/>
      <point x="229" y="142" type="line" smooth="yes"/>
      <point x="211" y="142"/>
      <point x="207" y="133"/>
      <point x="207" y="110" type="curve" smooth="yes"/>
      <point x="207" y="0" type="line"/>
      <point x="27" y="0" type="line"/>
      <point x="27" y="172" type="line" smooth="yes"/>
      <point x="27" y="232"/>
      <point x="68" y="302"/>
      <point x="141" y="302" type="curve" smooth="yes"/>
      <point x="152" y="302" type="line"/>
      <point x="56" y="500" type="line"/>
      <point x="587" y="500" type="line"/>
      <point x="490" y="302" type="line"/>
    </contour>
    <contour>
      <point x="321" y="302" type="line"/>
      <point x="341" y="370" type="line"/>
      <point x="301" y="370" type="line"/>
    </contour>
  </outline>
</glyph>
<glyph name="uni0490" format="2">
  <advance width="387"/>
  <unicode hex="0490"/>
  <outline>
    <component base="Gamma"/>
    <contour>
      <point x="208" y="812" type="line"/>
      <point x="375" y="812" type="line"/>
      <point x="375" y="644" type="line"/>
      <point x="201" y="644" type="line"/>
      <point x="201" y="700" type="line"/>
    </contour>
  </outline>
</glyph>
<glyph name="uni04BA" format="2">
  <advance width="520"/>
  <unicode hex="04BA"/>
  <outline>
    <contour>
      <point x="222" y="700" type="line"/>
      <point x="222" y="436" type="line"/>
      <point x="255" y="454"/>
      <point x="289" y="458"/>
      <point x="325" y="458" type="curve" smooth="yes"/>
      <point x="432" y="458"/>
      <point x="487" y="377"/>
      <point x="487" y="245" type="curve" smooth="yes"/>
      <point x="487" y="-1" type="line"/>
      <point x="307" y="-1" type="line"/>
      <point x="307" y="236" type="line" smooth="yes"/>
      <point x="307" y="276"/>
      <point x="293" y="298"/>
      <point x="262" y="298" type="curve" smooth="yes"/>
      <point x="241" y="298"/>
      <point x="222" y="274"/>
      <point x="222" y="245" type="curve" smooth="yes"/>
      <point x="222" y="-1" type="line"/>
      <point x="42" y="-1" type="line"/>
      <point x="42" y="700" type="line"/>
    </contour>
  </outline>
</glyph>
<glyph name="uni04BB" format="2">
  <advance width="464"/>
  <unicode hex="04BB"/>
  <outline>
    <contour>
      <point x="39" y="0" type="line"/>
      <point x="39" y="501" type="line"/>
      <point x="219" y="501" type="line"/>
      <point x="219" y="380" type="line"/>
      <point x="226" y="387"/>
      <point x="258" y="397"/>
      <point x="289" y="397" type="curve" smooth="yes"/>
      <point x="379" y="397"/>
      <point x="427" y="350"/>
      <point x="427" y="232" type="curve" smooth="yes"/>
      <point x="427" y="0" type="line"/>
      <point x="247" y="0" type="line"/>
      <point x="247" y="222" type="line" smooth="yes"/>
      <point x="247" y="233"/>
      <point x="242" y="242"/>
      <point x="234" y="242" type="curve" smooth="yes"/>
      <point x="225" y="242"/>
      <point x="219" y="231"/>
      <point x="219" y="217" type="curve" smooth="yes"/>
      <point x="219" y="0" type="line"/>
    </contour>
  </outline>
</glyph>
<glyph name="uni04F7" format="2">
  <advance width="317"/>
  <unicode hex="04F7"/>
  <outline>
    <component base="uni0433"/>
    <contour>
      <point x="120" y="149" type="line"/>
      <point x="302" y="149" type="line"/>
      <point x="302" y="-125" type="line"/>
      <point x="160" y="-125" type="line"/>
      <point x="149" y="0" type="line"/>
      <point x="120" y="0" type="line"/>
    </contour>
  </outline>
</glyph>
<glyph name="quotedblleft" format="2">
  <advance width="358"/>
  <unicode hex="201C"/>
  <outline>
    <contour>
      <point x="310" y="713" type="line"/>
      <point x="300" y="697"/>
      <point x="291" y="679"/>
      <point x="287" y="669" type="curve"/>
      <point x="322" y="660"/>
      <point x="347" y="631"/>
      <point x="347" y="595" type="curve" smooth="yes"/>
      <point x="347" y="552"/>
      <point x="312" y="517"/>
      <point x="268" y="517" type="curve" smooth="yes"/>
      <point x="227" y="517"/>
      <point x="193" y="552"/>
      <point x="193" y="595" type="curve" smooth="yes"/>
      <point x="193" y="697"/>
      <point x="282" y="735"/>
      <point x="280" y="735" type="curve"/>
    </contour>
    <contour>
      <point x="130" y="713" type="line"/>
      <point x="120" y="697"/>
      <point x="111" y="679"/>
      <point x="107" y="669" type="curve"/>
      <point x="142" y="660"/>
      <point x="167" y="631"/>
      <point x="167" y="595" type="curve" smooth="yes"/>
      <point x="167" y="552"/>
      <point x="132" y="517"/>
      <point x="88" y="517" type="curve" smooth="yes"/>
      <point x="47" y="517"/>
      <point x="13" y="552"/>
      <point x="13" y="595" type="curve" smooth="yes"/>
      <point x="13" y="697"/>
      <point x="102" y="735"/>
      <point x="100" y="735" type="curve"/>
    </contour>
  </outline>
</glyph>
<glyph name="perthousand" format="2">
  <advance width="1073" height="962"/>
  <unicode hex="2030"/>
  <outline>
    <component base="percent"/>
    <contour>
      <point x="891" y="278" type="curve" smooth="yes"/>
      <point x="971" y="278"/>
      <point x="1036" y="213"/>
      <point x="1036" y="132" type="curve" smooth="yes"/>
      <point x="1036" y="51"/>
      <point x="971" y="-14"/>
      <point x="891" y="-14" type="curve" smooth="yes"/>
      <point x="810" y="-14"/>
      <point x="744" y="51"/>
      <point x="744" y="132" type="curve" smooth="yes"/>
      <point x="744" y="213"/>
      <point x="810" y="278"/>
    </contour>
    <contour>
      <point x="890.762" y="159.75" type="curve" smooth="yes"/>
      <point x="875.578" y="159.75"/>
      <point x="863.535" y="146.137"/>
      <point x="863.535" y="132" type="curve" smooth="yes"/>
      <point x="863.535" y="116.816"/>
      <point x="875.578" y="104.25"/>
      <point x="890.762" y="104.25" type="curve" smooth="yes"/>
      <point x="904.899" y="104.25"/>
      <point x="917.465" y="116.816"/>
      <point x="917.465" y="132" type="curve" smooth="yes"/>
      <point x="917.465" y="146.137"/>
      <point x="904.899" y="159.75"/>
    </contour>
  </outline>
</glyph>
<glyph name="Euro" format="2">
  <advance width="427"/>
  <unicode hex="20AC"/>
  <outline>
    <component base="C"/>
    <contour>
      <point x="-1" y="367" type="line"/>
      <point x="-1" y="493" type="line"/>
      <point x="357" y="493" type="line"/>
      <point x="357" y="367" type="line"/>
    </contour>
    <contour>
      <point x="-1" y="215" type="line"/>
      <point x="-1" y="340" type="line"/>
      <point x="357" y="340" type="line"/>
      <point x="357" y="215" type="line"/>
    </contour>
  </outline>
</glyph>
<glyph name="y_lower_alt" format="2">
  <advance width="497"/>
  <unicode hex="9998"/>
  <outline>
    <contour>
      <point x="100" y="-209" type="line"/>
      <point x="159" y="-3" type="line"/>
      <point x="20" y="500" type="line"/>
      <point x="204" y="500" type="line"/>
      <point x="245" y="274" type="line"/>
      <point x="286" y="500" type="line"/>
      <point x="476" y="500" type="line"/>
      <point x="284" y="-209" type="line"/>
    </contour>
  </outline>
</glyph>
<glyph name="commaaccent" format="1">
  <advance width="267" height="962"/>
  <unicode hex="F6C3"/>
  <outline>
    <contour>
      <point x="93" y="-136" type="line"/>
      <point x="106" y="-123"/>
      <point x="112" y="-113"/>
      <point x="116" y="-103" type="curve"/>
      <point x="81" y="-94"/>
      <point x="56" y="-65"/>
      <point x="56" y="-29" type="curve" smooth="yes"/>
      <point x="56" y="14"/>
      <point x="91" y="49"/>
      <point x="135" y="49" type="curve" smooth="yes"/>
      <point x="176" y="49"/>
      <point x="210" y="14"/>
      <point x="210" y="-29" type="curve" smooth="yes"/>
      <point x="210" y="-131"/>
      <point x="121" y="-158"/>
      <point x="123" y="-158" type="curve"/>
    </contour>
  </outline>
</glyph>
<glyph name="ff" format="2">
  <advance width="680"/>
  <unicode hex="FB00"/>
  <outline>
    <contour>
      <point x="620" y="528" type="line"/>
      <point x="602" y="535"/>
      <point x="588" y="540"/>
      <point x="553" y="540" type="curve" smooth="yes"/>
      <point x="521" y="540"/>
      <point x="515" y="524"/>
      <point x="515" y="510" type="curve" smooth="yes"/>
      <point x="515" y="501" type="line"/>
      <point x="622" y="501" type="line"/>
      <point x="594" y="321" type="line"/>
      <point x="515" y="321" type="line"/>
      <point x="515" y="0" type="line"/>
      <point x="336" y="0" type="line"/>
      <point x="336" y="501" type="line"/>
      <point x="336" y="510"/>
      <point x="336" y="515"/>
      <point x="339" y="524" type="curve"/>
      <point x="307" y="534"/>
      <point x="310" y="540"/>
      <point x="258" y="540" type="curve" smooth="yes"/>
      <point x="231" y="540"/>
      <point x="220" y="529"/>
      <point x="220" y="509" type="curve" smooth="yes"/>
      <point x="220" y="501" type="line"/>
      <point x="308" y="501" type="line"/>
      <point x="281" y="321" type="line"/>
      <point x="220" y="321" type="line"/>
      <point x="220" y="0" type="line"/>
      <point x="39" y="0" type="line"/>
      <point x="39" y="512" type="line" smooth="yes"/>
      <point x="39" y="627"/>
      <point x="81" y="712"/>
      <point x="225" y="712" type="curve" smooth="yes"/>
      <point x="287" y="712"/>
      <point x="335" y="696"/>
      <point x="394" y="673" type="curve"/>
      <point x="434" y="693"/>
      <point x="460" y="709"/>
      <point x="530" y="709" type="curve" smooth="yes"/>
      <point x="570" y="709"/>
      <point x="604" y="701"/>
      <point x="644" y="689" type="curve"/>
    </contour>
  </outline>
</glyph>
<glyph name="fi" format="2">
  <advance width="559"/>
  <unicode hex="FB01"/>
  <outline>
    <contour>
      <point x="525" y="520" type="line"/>
      <point x="455" y="534"/>
      <point x="355" y="543"/>
      <point x="272" y="543" type="curve" smooth="yes"/>
      <point x="235" y="543"/>
      <point x="220" y="528"/>
      <point x="220" y="509" type="curve" smooth="yes"/>
      <point x="220" y="501" type="line"/>
      <point x="309" y="501" type="line"/>
      <point x="280" y="321" type="line"/>
      <point x="220" y="321" type="line"/>
      <point x="220" y="0" type="line"/>
      <point x="40" y="0" type="line"/>
      <point x="40" y="511" type="line" smooth="yes"/>
      <point x="40" y="671"/>
      <point x="168" y="710"/>
      <point x="268" y="710" type="curve" smooth="yes"/>
      <point x="387" y="710"/>
      <point x="471" y="690"/>
      <point x="525" y="666" type="curve"/>
    </contour>
    <contour>
      <point x="525" y="0" type="line"/>
      <point x="345" y="0" type="line"/>
      <point x="345" y="501" type="line"/>
      <point x="525" y="501" type="line"/>
    </contour>
  </outline>
</glyph>
<glyph name="t_t" format="1">
  <advance width="590" height="962"/>
  <outline>
    <component base="t" xOffset="277"/>
    <contour>
      <point x="220" y="213" type="line" smooth="yes"/>
      <point x="220" y="167"/>
      <point x="244" y="153"/>
      <point x="290" y="153" type="curve"/>
      <point x="225" y="-13" type="line"/>
      <point x="91" y="-11"/>
      <point x="42" y="65"/>
      <point x="42" y="159" type="curve" smooth="yes"/>
      <point x="42" y="700" type="line"/>
      <point x="220" y="700" type="line"/>
      <point x="220" y="500" type="line"/>
      <point x="370" y="500" type="line"/>
      <point x="370" y="321" type="line"/>
      <point x="220" y="321" type="line"/>
    </contour>
  </outline>
</glyph>
